<?xml version="1.0" encoding="UTF-8"?>
<svg width="532px" height="641px" viewBox="0 0 532 641" version="1.1" xmlns="http://www.w3.org/2000/svg" xmlns:xlink="http://www.w3.org/1999/xlink">
    <!-- Generator: Sketch 43.1 (39012) - http://www.bohemiancoding.com/sketch -->
    <title>map_hanoi</title>
    <desc>Created with Sketch.</desc>
    <defs></defs>
    <g id="Page-1" stroke="none" stroke-width="1" fill="none" fill-rule="evenodd" fill-opacity="0.701960784">
        <g id="map_hanoi">
            <polygon id="chuongmy" fill="#F1983C" points="326 451 324 450 322 450 320 451 317 451 314 451 311 451 307 450 306 449 307 448 306 446 305 444 304 441 304 440 304 438 305 437 307 436 307 435 307 434 305 434 304 434 304 435 302 435 299 436 299 436 297 436 297 438 297 438 297 439 297 441 298 443 298 444 297 445 297 445 296 444 296 445 295 447 294 448 293 447 292 447 292 446 291 446 291 446 290 445 290 445 288 445 288 444 287 444 286 445 286 446 284 445 281 445 279 446 279 446 277 444 277 444 277 445 277 445 276 445 276 445 276 445 276 446 276 446 275 446 273 444 272 444 272 445 272 446 272 446 270 446 269 446 267 445 266 445 264 446 263 446 262 447 263 457 263 461 263 461 262 461 262 462 260 462 260 462 255 462 254 462 252 462 249 463 249 462 249 462 250 461 250 460 249 459 249 458 249 457 249 457 250 456 250 456 250 455 250 455 250 454 251 453 250 452 249 451 250 450 248 449 248 448 248 447 248 447 246 446 246 445 247 444 248 444 249 444 249 443 250 443 249 442 249 441 249 441 250 441 251 441 251 441 251 440 250 440 251 439 252 440 254 440 254 440 255 440 255 438 255 438 257 438 257 437 257 437 257 436 256 435 255 435 255 434 255 434 257 433 257 433 256 432 256 432 253 433 253 432 253 431 253 430 252 429 253 428 253 427 253 427 252 427 250 428 250 429 249 429 249 430 245 431 241 433 239 434 240 433 239 433 239 433 238 433 236 430 235 430 233 427 231 427 229 427 229 428 228 427 228 426 227 425 226 424 225 424 225 424 224 424 225 427 224 428 225 429 225 431 225 431 225 432 223 433 222 434 221 434 220 434 220 435 220 436 220 437 220 439 220 440 220 442 219 442 218 442 218 444 217 446 217 450 217 455 217 456 217 459 216 460 216 460 212 460 209 461 207 461 204 460 202 459 202 458 199 458 199 458 198 458 194 459 194 458 195 456 194 450 194 449 196 448 197 445 198 441 199 440 199 439 201 440 203 441 208 440 209 439 211 437 212 436 212 434 212 433 212 431 213 430 213 429 215 427 216 427 216 426 216 425 215 424 216 424 216 424 216 424 216 423 216 423 216 421 216 420 216 420 216 419 216 417 215 415 215 414 216 413 216 413 213 411 212 409 210 408 209 407 209 405 209 405 207 404 205 404 204 403 203 402 203 402 201 401 200 401 200 400 199 398 198 397 198 397 197 397 197 397 197 396 197 394 197 395 195 395 194 395 193 395 193 394 193 393 192 394 191 394 191 395 191 396 190 396 189 396 188 397 187 396 186 397 185 396 185 395 189 393 192 391 193 391 195 390 196 387 197 386 197 386 195 383 194 381 194 380 195 380 196 378 196 378 195 378 194 378 194 378 194 377 195 376 197 374 199 372 202 371 205 370 206 369 207 368 208 369 208 368 209 367 211 367 212 367 213 369 214 369 214 370 213 371 213 371 214 372 215 371 217 371 218 370 220 369 221 369 222 369 223 369 224 369 225 368 225 367 225 366 226 365 227 365 228 365 229 365 228 364 228 363 228 362 228 362 230 362 231 361 232 361 233 361 234 361 237 360 238 359 238 358 238 358 238 357 236 355 236 354 237 354 237 354 238 354 239 355 239 355 240 356 240 356 241 355 241 354 241 354 240 353 240 352 240 351 242 351 243 350 244 349 243 348 243 348 243 348 245 348 245 348 247 345 247 345 248 345 249 344 249 343 249 343 249 343 250 342 250 340 250 337 251 337 252 337 253 338 253 338 254 337 255 337 255 338 256 338 256 337 257 337 258 339 259 340 262 339 265 339 266 339 267 340 269 340 272 341 274 340 283 337 286 337 287 336 287 335 287 334 289 334 289 332 290 332 291 331 291 331 292 331 293 330 295 331 296 330 296 330 297 330 297 331 296 333 296 334 295 335 295 336 296 337 298 336 300 336 300 336 301 335 301 335 303 335 303 335 304 335 304 335 305 336 306 335 307 335 309 336 310 336 316 337 317 338 318 339 318 339 316 341 315 342 314 343 312 344 310 344 310 345 309 346 308 347 308 348 309 350 309 351 310 352 312 353 313 353 314 352 315 352 316 351 317 350 317 348 317 347 318 347 319 349 319 349 320 352 321 355 319 356 319 356 318 355 316 355 314 355 312 354 310 353 309 352 308 352 307 351 307 351 306 352 304 355 304 356 305 357 305 356 309 358 313 358 314 359 318 359 318 359 319 360 319 361 318 365 318 368 320 369 325 371 323 372 322 374 322 374 322 375 320 377 320 380 319 380 318 381 317 382 316 383 316 384 316 384 317 385 318 385 319 385 321 385 323 385 325 385 326 386 328 388 328 390 328 394 328 396 328 398 327 399 326 400 326 400 325 401 324 401 321 398 321 398 320 400 321 402 322 405 324 407 325 408 326 409 327 409 330 411 331 412 332 413 334 413 338 415 340 417 340 418 340 418 340 419 339 420 335 421 330 421 328 421 326 423 325 424 324 425 324 426 325 427 326 427 327 428 328 429 329 429 332 429 335 429 339 429 343 428 343 428 344 429 344 429 344 430 340 436 339 437 339 438 338 440 338 442 340 446 339 447 334 451 331 453 330 453 328 452"></polygon>
            <polygon id="thanhoai" fill="#48885C" points="397 437 400 438 399 439 399 441 399 443 402 445 402 446 401 446 401 446 401 450 401 453 400 453 399 453 399 453 399 455 399 456 399 457 396 457 396 456 395 452 395 452 392 453 391 452 388 452 386 453 385 453 384 454 386 457 387 460 385 461 385 461 384 460 383 458 382 456 382 456 380 457 380 458 379 458 378 459 378 459 379 461 378 463 378 463 378 464 380 466 380 467 379 467 378 469 378 469 377 470 377 471 376 472 375 472 375 472 370 470 367 470 365 468 364 467 363 466 362 465 361 465 360 464 359 464 359 464 358 465 357 466 356 466 356 465 355 465 355 465 354 465 354 466 354 466 349 466 348 467 348 469 347 470 347 471 346 471 346 470 346 470 345 469 345 468 345 468 345 467 342 465 341 465 341 466 340 467 338 466 337 466 336 464 335 464 335 464 334 465 333 464 333 464 331 466 331 466 327 463 326 463 327 460 326 459 327 459 326 457 326 456 326 453 325 451 324 450 326 451 328 452 330 453 331 453 334 451 339 447 340 446 338 442 338 440 339 438 339 437 340 436 344 430 344 429 344 429 343 428 343 428 339 429 335 429 332 429 329 429 328 429 327 428 326 427 325 427 324 426 324 425 325 424 326 423 328 421 330 421 335 421 339 420 340 419 340 418 340 418 340 417 338 415 334 413 332 413 331 412 330 411 327 409 326 409 325 408 324 407 322 405 321 402 320 400 321 398 321 398 324 401 325 401 326 400 326 400 327 399 328 398 328 396 328 394 328 390 328 388 326 386 325 385 323 385 321 385 319 385 318 385 317 385 316 384 316 384 316 383 317 382 318 381 319 380 320 380 320 377 322 375 322 374 322 374 323 372 325 371 320 369 318 368 318 365 319 361 319 360 318 359 318 359 314 359 313 358 309 358 305 356 305 357 304 356 304 355 306 352 307 351 307 351 308 352 309 352 310 353 312 354 314 355 316 355 318 355 319 356 319 356 321 355 320 352 319 349 319 349 318 347 317 347 318 347 318 346 319 346 319 347 321 348 321 348 325 347 325 347 325 347 326 348 328 347 329 348 330 347 332 348 333 348 334 348 334 348 334 350 334 350 334 352 335 353 334 357 335 358 335 358 336 358 336 358 337 358 337 358 338 358 338 358 339 358 340 358 340 358 341 357 341 354 341 353 344 355 344 355 344 356 344 357 347 360 347 360 349 359 349 359 353 358 354 358 355 357 354 357 355 356 356 356 359 355 360 354 360 353 361 352 362 350 362 349 361 347 360 347 359 346 359 346 358 343 357 342 354 340 352 339 350 338 350 334 350 334 352 334 356 332 357 331 358 331 359 330 363 329 363 330 363 331 364 332 365 332 367 333 368 333 370 332 370 332 371 334 371 335 370 336 370 336 368 337 368 337 368 340 368 340 369 341 366 346 364 346 363 347 364 347 364 347 364 347 364 348 364 348 365 349 367 349 369 348 370 349 370 349 371 349 371 349 371 350 371 350 371 351 371 351 372 351 372 351 372 351 373 352 373 352 372 353 371 353 371 355 371 355 370 356 368 357 368 357 367 358 366 359 366 360 366 361 366 363 365 364 365 366 365 366 366 367 368 367 369 368 369 370 370 370 370 370 371 369 373 370 374 370 375 371 375 372 376 372 376 372 377 372 378 372 380 375 383 377 384 379 384 380 383 380 383 381 384 382 383 382 382 382 383 385 384 387 385 388 384 389 384 390 383 394 384 395 384 395 384 396 384 398 384 399 383 400 383 401 383 402 383 403 383 403 385 402 389 403 389 403 389 405 388 406 388 407 389 408 389 409 389 409 387 410 387 410 387 411 386 412 386 412 386 413 388 413 388 414 388 415 388 418 389 425 388 425 389 427 391 429 391 429 392 431 393 432 392 434 393 435 393 436 394 437 396 437"></polygon>
            <polygon id="unghoa" fill="#A553B7" points="439 575 434 578 431 579 428 579 425 579 423 578 421 578 418 578 414 577 412 577 410 575 408 571 407 572 407 571 406 571 405 570 405 570 401 568 402 567 402 566 398 565 396 564 396 565 396 565 395 565 393 564 393 563 392 563 390 563 388 564 388 564 386 564 384 564 386 565 389 568 391 570 392 571 392 572 395 573 396 574 397 576 396 577 395 578 392 580 390 581 389 582 387 583 386 584 383 586 382 587 382 588 380 589 380 590 381 593 381 597 381 599 379 599 377 600 375 603 374 603 372 603 370 603 369 603 366 601 364 600 362 599 361 598 359 596 356 594 356 593 356 593 357 592 360 592 366 591 368 591 369 591 372 589 373 588 374 587 374 585 375 584 375 582 374 581 373 580 371 578 369 578 368 577 367 576 362 570 360 568 357 565 354 561 353 561 349 557 345 555 344 554 344 554 340 551 336 548 334 545 331 542 331 541 331 539 332 538 334 537 339 536 340 536 342 535 343 533 344 531 345 531 345 529 345 526 345 523 345 521 346 519 347 518 348 518 350 517 350 517 350 515 349 514 347 512 344 511 343 510 342 511 340 512 339 512 332 513 330 514 328 515 327 516 325 517 324 517 323 517 322 517 322 516 323 514 324 513 324 512 324 510 323 508 323 507 322 506 321 505 320 505 318 505 315 504 312 503 312 503 307 502 305 502 303 502 301 502 299 502 298 502 297 501 297 500 297 499 297 497 297 496 298 495 299 495 301 495 304 495 305 494 306 494 310 491 316 484 317 482 319 479 319 477 318 475 317 474 316 473 312 470 310 467 308 464 307 463 307 463 306 461 305 461 305 460 303 458 304 457 304 454 305 451 305 451 306 449 307 450 311 451 314 451 317 451 320 451 322 450 324 450 325 451 326 453 326 456 326 457 327 459 326 459 327 460 326 463 327 463 331 466 331 466 333 464 333 464 334 465 335 464 335 464 336 464 337 466 338 466 340 467 341 466 341 465 342 465 345 467 345 468 345 468 345 469 346 470 346 470 346 471 347 471 347 470 348 469 348 467 349 466 354 466 354 466 354 465 355 465 355 465 356 465 356 466 357 466 358 465 359 464 359 464 360 464 361 465 362 465 363 466 364 467 365 468 367 470 370 470 375 472 375 472 374 472 373 473 373 473 373 474 373 474 374 474 375 476 375 476 373 476 373 479 373 479 371 480 370 480 370 480 370 480 369 483 368 486 368 487 367 487 365 486 365 488 365 488 366 488 366 489 366 490 367 495 366 497 367 497 373 497 375 496 375 497 377 499 379 500 380 499 381 499 381 501 387 505 388 503 388 503 390 505 390 505 390 506 391 506 394 505 397 504 401 503 404 503 404 503 405 504 406 506 406 506 409 506 409 507 408 510 408 510 409 510 410 510 410 511 411 511 412 513 413 515 413 516 411 519 412 519 415 521 415 524 418 525 420 527 421 528 423 528 425 527 425 529 426 530 426 530 426 531 435 537 435 538 436 538 436 539 437 540 437 540 438 540 438 541 436 542 435 546 434 547 433 547 432 548 433 552 433 552 434 552 434 552 435 554 435 554 438 553 440 552 441 554 441 555 443 555 445 556 447 557 449 559 449 560 448 562 446 561 445 560 444 559 443 559 442 561 443 564 442 570 443 573"></polygon>
            <polygon id="myduc" fill="#F1983C" points="372 589 372 589 369 591 368 591 366 591 360 592 357 592 356 593 356 593 356 594 359 596 361 598 362 599 364 600 366 601 369 603 370 603 372 603 374 603 375 603 377 600 379 599 381 599 382 599 381 600 377 604 377 604 377 605 377 606 377 607 378 608 380 609 377 612 379 613 378 614 378 614 377 613 376 613 375 614 375 614 375 615 373 618 373 622 373 623 373 625 373 627 371 629 370 634 370 636 370 637 369 638 367 638 362 639 360 639 360 640 359 640 358 640 357 640 356 641 356 641 351 641 351 640 347 632 347 630 346 629 345 629 344 628 340 623 339 623 338 622 338 621 337 620 337 620 336 620 335 620 332 615 331 614 329 614 328 614 326 614 325 613 323 612 320 609 320 608 316 613 314 614 313 615 312 615 310 614 308 613 306 613 306 613 304 614 303 612 302 612 302 610 303 608 303 606 303 605 302 603 301 603 299 601 298 599 297 599 297 597 296 597 294 596 294 596 293 597 292 599 291 600 291 600 291 600 290 600 290 600 289 600 288 600 288 600 287 599 286 599 285 600 284 601 283 600 282 600 281 601 278 600 277 600 276 600 276 600 275 599 275 597 276 595 276 595 273 591 273 591 274 590 275 590 276 590 277 590 278 588 280 588 281 591 283 590 284 591 284 591 287 588 289 587 289 587 288 585 288 585 290 583 288 583 288 582 287 582 286 580 284 577 285 576 285 576 285 574 286 572 285 571 285 571 286 570 286 569 286 569 284 567 284 567 284 566 284 566 285 565 285 564 285 563 284 561 285 561 284 560 284 559 283 558 283 559 283 561 283 562 282 562 282 563 281 563 281 561 280 562 280 559 280 558 279 555 278 554 278 553 278 552 277 551 277 550 278 550 279 550 280 550 280 549 282 548 283 547 283 547 283 548 284 547 284 547 284 547 284 546 285 545 285 543 284 543 284 542 284 542 285 541 285 542 285 542 286 541 286 540 286 539 286 539 286 538 285 535 283 533 283 533 282 532 282 531 281 531 280 530 279 529 277 525 275 521 275 521 274 521 273 521 273 519 273 518 273 518 272 518 272 518 273 514 273 513 276 508 271 504 269 503 268 501 268 499 266 496 266 494 265 493 263 489 263 487 262 482 262 481 262 475 262 468 262 467 262 461 263 461 263 461 263 457 262 447 263 446 264 446 266 445 267 445 269 446 270 446 272 446 272 446 272 445 272 444 273 444 275 446 276 446 276 446 276 445 276 445 276 445 277 445 277 445 277 444 277 444 279 446 279 446 281 445 284 445 286 446 286 445 287 444 288 444 288 445 290 445 290 445 291 446 291 446 292 446 292 447 293 447 294 448 295 447 296 445 296 444 297 445 297 445 298 444 298 443 297 441 297 439 297 438 297 438 297 436 299 436 299 436 302 435 304 435 304 434 305 434 307 434 307 435 307 436 305 437 304 438 304 440 304 441 305 444 306 446 307 448 306 449 305 451 305 451 304 454 304 457 303 458 305 460 305 461 306 461 307 463 307 463 308 464 310 467 312 470 316 473 317 474 318 475 319 477 319 479 317 482 317 483 316 484 310 491 306 494 305 494 304 495 301 495 299 495 298 495 297 496 297 497 297 499 297 500 297 501 298 502 299 502 301 502 303 502 305 502 307 502 312 503 312 503 315 504 318 505 320 505 321 505 322 506 323 507 323 508 324 510 324 512 324 513 323 514 322 516 322 517 323 517 324 517 325 517 327 516 328 515 330 514 332 513 339 512 340 512 342 511 343 510 344 511 345 511 347 512 349 514 350 515 350 517 350 517 348 518 347 518 346 519 345 521 345 523 345 526 345 529 345 531 344 531 343 533 342 535 340 536 339 536 334 537 332 538 331 539 331 541 331 542 334 545 336 548 340 551 344 554 344 554 345 555 349 557 353 561 354 561 357 565 360 568 362 570 367 576 368 577 369 578 371 578 373 580 374 581 375 582 375 584 374 585 374 587 373 588"></polygon>
            <polygon id="phuxuyen" fill="#A553B7" points="510 549 510 549 502 555 502 558 502 560 502 560 502 561 502 561 501 562 497 562 495 563 493 563 492 563 491 564 488 567 486 568 487 570 487 572 487 573 484 572 482 572 481 571 479 571 479 570 478 569 477 567 477 564 477 563 479 561 479 560 479 558 479 554 478 552 478 550 476 549 475 550 473 550 470 551 468 551 460 554 458 555 457 555 456 555 451 559 449 560 449 559 447 557 445 556 443 555 441 555 441 554 440 552 438 553 435 554 435 554 434 552 434 552 433 552 433 552 432 548 433 547 434 547 435 546 436 542 438 541 438 540 437 540 437 540 436 539 436 538 435 538 435 537 426 531 426 530 426 530 425 529 425 527 423 528 421 528 420 527 418 525 415 524 415 521 412 519 411 519 413 516 413 515 412 513 411 511 410 511 410 510 409 510 408 510 408 510 409 507 409 506 406 506 406 506 405 504 404 503 404 503 401 503 397 504 394 505 391 506 390 506 390 505 390 505 388 503 388 503 387 505 381 501 381 499 380 499 379 500 377 499 375 497 375 496 373 497 367 497 366 497 367 495 366 490 366 489 366 488 365 488 365 488 365 486 367 487 368 487 368 486 369 483 370 480 370 480 370 480 371 480 373 479 373 479 373 476 375 476 375 476 374 474 373 474 373 474 373 473 373 473 374 472 376 472 377 471 377 470 378 469 378 469 379 467 380 467 380 466 378 464 378 463 378 463 379 461 378 459 378 459 379 458 380 458 380 457 382 456 382 456 383 458 384 460 385 461 385 461 387 460 387 460 386 457 384 454 385 453 386 453 388 452 391 452 392 453 395 452 395 452 396 456 396 457 396 461 400 461 402 461 404 460 406 459 411 456 411 456 412 456 414 457 415 457 416 457 416 457 419 458 423 459 423 460 424 461 423 463 422 465 422 465 427 468 427 468 428 469 429 468 430 468 432 470 432 470 431 471 432 471 432 471 433 471 434 471 434 472 435 472 436 473 438 478 438 478 439 478 440 478 441 478 443 478 442 482 442 483 441 483 440 483 439 485 437 488 437 489 436 492 436 493 437 494 439 496 440 495 441 493 443 493 444 493 444 493 445 493 445 494 446 495 447 495 447 494 448 494 448 493 449 491 449 491 449 490 450 490 452 490 453 489 454 488 455 487 458 485 459 484 457 482 454 478 457 476 457 475 458 474 459 473 459 473 460 470 461 470 460 470 460 469 459 469 460 469 462 467 464 466 467 468 468 468 470 469 473 470 476 470 478 471 486 472 487 472 490 473 492 474 494 477 495 479 495 480 496 481 494 487 494 491 494 496 494 501 495 508 492 507 491 508 490 513 490 517 492 521 493 525 497 533 498 534 499 534 502 535 504 535 506 534 507 534 510 532 514 531 519 530 520 532 519 533 519 534 518 535 515 537 515 537 517 540 517 541 515 542 513 543 513 545 514 548 515 548 515 550 516 552 514 553 514 553 513 553 513 552 514 550 514 550 513 549 511 548"></polygon>
            <polygon id="thuongtin" fill="#FCD27E" points="463 464 464 466 462 467 460 469 459 469 460 469 460 470 461 470 460 470 459 473 459 473 458 474 457 475 457 476 454 478 457 482 459 484 458 485 455 487 454 488 453 489 452 490 450 490 449 490 449 491 449 491 448 493 448 494 447 494 447 495 446 495 445 494 445 493 444 493 444 493 443 493 441 493 440 495 439 496 437 494 436 493 436 492 437 489 437 488 439 485 440 483 441 483 442 483 442 482 443 478 441 478 440 478 439 478 438 478 438 478 436 473 435 472 434 472 434 471 433 471 432 471 432 471 431 471 432 470 432 470 430 468 429 468 428 469 427 468 427 468 422 465 422 465 423 463 424 461 423 460 423 459 419 458 416 457 416 457 415 457 414 457 412 456 411 456 411 456 406 459 404 460 402 461 400 461 396 461 396 457 399 457 399 456 399 455 399 453 399 453 400 453 401 453 401 450 401 446 401 446 402 446 402 445 399 443 399 441 399 439 400 438 397 438 396 437 394 437 393 436 393 435 392 434 393 432 392 431 391 429 391 429 389 427 388 425 389 425 388 418 388 415 388 414 388 413 386 413 386 412 386 412 387 411 387 410 387 410 389 409 389 409 389 408 388 407 388 406 389 405 389 403 389 403 385 402 383 403 383 403 383 402 383 401 383 400 384 399 384 398 384 396 384 395 384 395 383 394 384 390 384 389 385 388 384 387 383 385 382 382 383 382 384 382 383 381 383 380 384 380 384 379 383 377 387 377 391 377 391 378 391 379 392 380 392 381 392 381 393 381 394 380 395 380 394 379 394 379 394 378 394 378 394 378 395 378 395 378 396 377 396 376 396 375 396 375 396 374 395 374 395 373 396 372 399 372 401 371 402 372 402 373 401 375 401 377 401 378 404 379 407 379 407 379 409 380 411 382 412 382 411 379 411 378 411 378 412 378 412 377 412 376 413 376 413 376 414 376 414 375 415 374 416 374 419 375 420 375 421 374 421 373 424 373 425 374 427 374 427 374 427 373 428 371 429 371 429 371 430 371 433 370 434 370 433 372 433 372 438 374 438 374 439 372 439 372 443 375 444 375 444 375 444 376 443 378 442 380 442 382 443 384 443 385 444 386 448 388 452 390 453 390 456 392 457 392 457 392 458 393 463 395 466 398 469 400 470 402 471 404 471 407 471 409 472 410 471 412 470 416 469 418 462 421 460 422 459 424 456 427 454 430 453 434 453 436 453 438 453 440 454 443 457 453 458 456 459 459 461 462"></polygon>
            <polygon id="quocoai" fill="#6ECFFC" points="304 335 303 335 303 335 301 335 301 335 300 336 300 336 298 336 296 337 295 336 295 335 296 334 296 333 297 331 297 330 296 330 296 330 295 331 293 330 292 331 291 331 291 331 290 332 289 332 289 334 287 334 287 335 287 336 286 337 283 337 274 340 272 341 269 340 267 340 266 339 265 339 262 339 259 340 258 339 257 337 256 337 256 338 255 338 255 337 254 337 253 338 253 338 252 337 251 337 250 337 250 340 250 342 249 343 249 343 249 343 249 344 248 345 247 345 247 345 245 348 245 348 243 348 243 348 243 348 244 349 243 350 242 351 240 351 240 352 240 353 241 354 241 354 241 355 240 356 240 356 239 355 239 355 238 354 237 354 237 354 236 354 236 355 238 357 238 358 238 358 238 359 237 360 234 361 233 361 232 361 231 361 230 362 228 362 228 362 228 363 228 364 229 365 228 365 227 365 226 365 225 366 225 367 225 368 224 369 223 369 222 369 221 369 220 369 218 370 217 371 215 371 214 372 213 371 213 371 214 370 214 369 213 369 212 367 211 367 209 367 208 368 208 369 207 368 207 368 208 367 209 367 210 366 215 365 216 365 218 363 218 363 217 362 216 361 215 360 215 359 214 358 212 357 210 356 209 356 208 357 207 358 206 360 204 361 202 362 200 360 198 358 198 357 197 357 196 358 194 357 194 357 193 359 193 359 191 359 188 362 187 362 186 361 184 360 182 359 182 358 178 361 174 364 173 365 172 365 171 364 170 363 169 363 163 362 161 361 159 359 157 358 156 356 156 356 156 355 155 355 155 355 154 355 153 355 153 355 151 353 149 353 147 352 146 352 145 351 145 350 145 350 144 349 142 345 139 342 140 342 141 342 143 342 143 342 144 339 145 338 147 335 147 335 147 334 147 333 147 332 148 331 148 330 148 330 150 329 153 327 154 326 155 325 155 324 156 322 156 321 156 318 156 317 155 316 154 315 154 311 156 311 156 313 157 314 157 315 157 316 157 317 158 317 159 317 160 317 161 318 162 318 163 318 166 321 168 322 170 323 171 322 174 322 175 321 176 319 176 318 177 318 178 318 179 319 180 319 180 319 180 318 180 317 181 318 182 318 182 318 183 318 183 318 187 316 188 315 189 315 189 314 190 312 190 312 191 312 191 312 192 312 194 311 194 311 194 312 194 312 194 313 193 313 194 315 195 316 197 316 197 316 199 316 200 316 200 317 201 317 202 318 202 319 202 319 204 319 204 321 205 320 206 321 206 321 207 322 207 322 208 322 209 320 209 320 208 319 209 319 209 319 210 319 209 316 209 315 209 314 210 313 210 313 211 313 211 314 210 315 211 316 212 316 213 316 213 316 213 315 214 313 213 312 214 311 214 310 214 310 213 309 213 308 212 307 213 306 214 305 214 304 213 303 213 302 213 300 214 299 214 299 214 299 215 299 215 298 216 299 216 299 217 299 217 298 219 298 219 298 220 299 221 299 221 298 221 298 220 297 220 296 221 296 222 295 222 294 222 294 222 293 222 293 223 293 224 294 223 295 225 297 226 299 227 299 228 299 229 299 229 299 229 298 230 298 230 298 230 298 231 299 231 298 231 298 233 297 233 297 234 297 235 297 236 296 236 297 237 296 238 298 239 298 243 296 245 298 249 294 249 294 252 295 252 294 253 293 254 293 255 293 256 293 256 292 256 292 255 292 254 290 254 289 252 291 251 291 250 289 248 288 248 288 248 287 250 284 251 283 252 282 251 281 250 280 249 280 250 278 251 274 251 274 250 274 250 273 250 272 251 272 251 272 251 271 251 269 252 268 252 266 258 267 258 267 259 268 260 267 261 265 261 265 262 265 262 266 261 267 261 268 261 269 261 269 262 269 263 267 263 267 265 268 265 270 266 272 267 272 272 275 272 275 273 275 274 276 274 276 275 276 275 276 276 277 276 278 276 278 276 279 277 279 276 280 276 281 277 281 277 281 277 281 277 283 278 283 279 284 280 285 280 285 281 285 284 287 283 290 283 293 283 294 282 295 282 295 281 296 277 294 276 294 275 294 273 295 273 296 273 300 274 301 276 303 276 304 276 307 275 311 274 314 274 315 275 316 276 316 277 315 278 315 278 314 279 314 280 313 282 313 284 313 284 314 284 314 284 315 285 316 286 317 287 318 290 321 290 322 289 324 288 325 289 325 289 326 290 325 290 324 291 322 292 321 294 320 296 318 297 319 299 319 301 320 304 322 306 323 308 325 309 326 310 329 311 330 314 333 316 334 318 335 318 336 319 337 318 339 317 338 316 337 311 336 310 336 309 336 307 335 306 335 305 336"></polygon>
            <polygon id="thachthat" fill="#6AF689" points="250 273 250 274 251 274 251 274 250 278 249 280 250 280 251 281 252 282 251 283 250 284 248 287 248 288 248 288 250 289 251 291 252 291 254 289 254 290 255 292 256 292 256 292 256 293 255 293 254 293 253 293 252 294 252 295 249 294 249 294 245 298 243 296 239 298 238 298 237 296 236 297 236 296 235 297 234 297 233 297 233 297 231 298 231 298 231 299 230 298 230 298 230 298 229 298 229 299 229 299 228 299 227 299 226 299 225 297 223 295 224 294 223 293 222 293 222 293 222 294 222 294 222 295 221 296 220 296 220 297 221 298 221 298 221 299 220 299 219 298 219 298 217 298 217 299 216 299 216 299 215 298 215 299 214 299 214 299 214 299 213 300 213 302 213 303 214 304 214 305 213 306 212 307 213 308 213 309 214 310 214 310 214 311 213 312 214 313 213 315 213 316 213 316 212 316 211 316 210 315 211 314 211 313 210 313 210 313 209 314 209 315 209 316 210 319 209 319 209 319 208 319 209 320 209 320 208 322 207 322 207 322 206 321 206 321 205 320 204 321 204 319 202 319 202 319 202 318 201 317 200 317 200 316 199 316 197 316 197 316 195 316 194 315 193 313 194 313 194 312 194 312 194 311 194 311 192 312 191 312 191 312 190 312 190 312 189 314 189 315 188 315 187 316 183 318 183 318 182 318 182 318 181 318 180 317 180 318 180 319 180 319 179 319 178 318 177 318 176 318 176 319 175 321 174 322 171 322 170 323 168 322 166 321 163 318 162 318 161 318 160 317 159 317 158 317 157 317 157 316 157 315 157 314 156 313 156 311 154 311 154 315 155 316 156 317 156 318 156 321 156 322 155 324 155 325 154 326 153 327 150 329 148 330 148 330 148 331 147 332 147 333 147 334 147 335 147 335 145 338 144 339 143 342 143 342 141 342 140 342 139 342 138 342 131 342 131 342 130 343 130 343 128 343 126 343 124 341 123 340 120 338 117 336 113 335 113 335 113 334 113 333 112 330 112 329 110 326 110 325 109 324 108 323 107 320 106 320 105 317 104 317 101 315 98 314 97 313 97 313 97 312 97 311 97 311 96 310 96 309 96 309 96 308 96 307 95 307 95 306 95 305 95 305 94 305 94 304 94 303 94 303 94 302 93 302 89 302 88 302 88 302 88 301 89 300 89 300 89 299 89 299 89 298 88 298 88 298 86 299 84 300 82 301 82 301 80 301 79 300 78 300 77 299 76 299 76 298 76 298 75 296 75 295 75 294 75 292 75 290 75 290 77 290 78 290 78 289 80 289 82 290 82 290 84 289 86 288 87 287 89 287 89 287 90 289 92 291 93 292 94 292 95 291 96 291 97 291 101 290 104 289 105 288 106 288 108 289 110 288 110 289 112 290 112 290 114 289 116 289 117 290 120 292 122 293 122 292 123 291 124 290 124 289 124 287 125 286 126 286 128 285 132 285 136 282 146 271 147 271 150 274 153 277 154 277 157 280 159 281 160 282 160 282 161 280 161 280 161 280 163 279 163 278 164 277 165 276 165 276 166 276 166 275 167 274 168 274 170 273 173 270 173 269 174 268 175 268 174 267 174 266 175 266 174 265 174 265 175 265 176 265 176 265 176 264 177 263 176 262 177 262 179 260 179 260 179 259 179 259 178 259 178 258 178 257 178 256 178 255 178 255 177 255 176 254 175 252 175 252 175 251 175 251 176 250 175 250 176 249 177 247 178 247 179 246 180 246 180 245 180 245 180 245 181 245 181 245 181 244 180 244 180 243 179 243 177 244 177 244 177 243 178 242 177 239 176 238 175 237 173 237 172 237 171 236 171 235 171 234 171 233 172 233 172 232 173 232 174 232 174 232 174 231 175 231 176 230 178 231 180 231 182 231 184 229 185 228 186 227 186 227 187 228 188 228 189 228 190 228 190 227 190 227 192 226 193 226 194 226 194 226 196 223 196 222 197 223 199 223 200 224 202 224 204 224 206 223 207 223 209 224 209 227 209 228 210 228 210 228 209 232 209 233 210 233 210 234 208 237 208 238 213 240 214 242 215 243 215 243 218 242 222 241 223 242 224 243 225 244 229 245 229 245 231 246 232 247 232 247 233 245 233 245 234 246 236 248 238 248 239 248 240 248 241 248 244 251 246 252 248 254 248 254 248 255 248 255 250 260 249 261 249 262 251 265 252 268 251 269 251 271 251 272 251 272 250 272"></polygon>
            <polygon id="bavi" fill="#FFF799" points="133 169 132 170 131 170 131 170 131 170 130 173 130 173 130 174 129 174 129 174 129 174 129 175 129 175 129 176 129 176 128 176 128 177 127 178 128 179 128 180 127 180 125 181 125 182 126 182 126 183 125 183 126 184 125 184 125 184 124 185 123 185 123 186 122 188 121 188 119 187 118 186 118 186 118 187 119 188 119 189 118 189 118 190 118 190 116 189 117 188 117 187 116 187 114 187 114 187 114 186 114 186 112 186 111 186 111 186 111 185 110 185 110 185 108 184 107 183 107 183 106 183 103 182 103 182 103 183 103 183 102 184 102 184 100 185 100 185 100 186 99 186 97 189 97 189 96 190 96 191 95 191 95 191 94 192 94 192 92 194 92 195 92 195 92 196 92 196 94 196 95 196 95 197 95 197 97 198 97 198 99 199 99 201 99 203 99 205 100 206 101 207 103 207 103 208 103 208 103 209 103 210 103 214 104 216 104 217 103 218 100 219 100 219 101 220 102 220 104 221 105 222 106 222 107 222 110 220 111 220 110 221 110 221 110 222 111 223 112 224 111 225 111 226 113 227 114 227 113 229 112 229 111 230 110 232 109 233 109 234 109 236 109 237 109 237 110 237 110 238 110 239 109 239 109 240 109 240 110 241 110 241 111 242 110 246 109 247 110 248 110 250 110 250 111 251 113 252 114 252 115 251 116 252 117 251 118 250 120 249 121 249 121 249 120 251 120 251 121 251 122 249 122 248 122 247 123 246 124 246 124 247 124 250 123 252 123 253 123 254 123 254 122 255 123 256 124 256 124 255 124 252 125 250 124 249 125 248 125 247 126 246 127 245 128 244 129 245 128 247 128 248 128 249 127 251 126 252 126 254 125 255 125 256 124 257 123 258 123 262 123 268 123 270 122 276 123 277 124 278 126 279 127 279 128 281 128 282 129 283 129 283 130 284 132 285 132 285 128 285 126 286 125 286 124 287 124 289 124 290 123 291 122 292 122 293 120 292 117 290 116 289 114 289 112 290 112 290 110 289 110 288 108 289 106 288 105 288 104 289 101 290 97 291 96 291 95 291 94 292 93 292 92 291 90 289 89 287 89 287 87 287 86 288 84 289 82 290 82 290 80 289 78 289 78 290 77 290 75 290 74 289 72 286 71 285 72 283 72 282 67 285 64 288 63 289 62 289 61 290 58 290 56 292 51 294 49 295 48 295 47 294 45 293 44 291 43 290 43 290 41 290 38 290 36 291 36 292 34 293 34 293 34 292 33 294 33 294 32 294 31 294 29 294 28 294 27 294 27 293 26 293 27 292 27 292 28 291 28 289 27 289 28 288 28 288 29 288 29 288 29 287 30 287 30 285 31 284 29 282 29 282 29 283 29 283 29 284 29 286 29 287 29 287 28 286 28 285 27 285 26 285 26 286 25 286 24 286 23 287 23 287 23 287 23 289 24 289 24 289 21 291 19 289 18 288 17 287 15 285 14 284 11 282 11 281 9 278 8 277 8 276 6 271 5 267 4 266 4 266 4 265 3 262 3 259 4 256 5 255 6 252 7 250 7 249 13 241 16 236 18 232 18 232 19 231 21 225 22 220 23 217 22 211 22 211 20 208 15 200 15 199 13 197 11 195 10 194 9 192 8 191 4 185 3 184 2 181 0 178 0 177 0 176 1 175 1 174 1 171 5 164 6 162 6 160 6 159 8 154 9 152 10 151 11 151 14 150 16 149 20 147 21 147 24 145 25 143 27 143 28 143 31 143 32 143 34 144 37 143 38 142 41 139 42 138 42 133 43 130 43 130 42 127 42 127 42 126 43 125 43 124 44 122 47 111 47 110 47 108 47 107 47 107 47 104 47 99 46 97 46 96 46 92 46 90 47 86 48 79 49 76 50 75 50 74 49 73 48 71 47 70 47 69 48 62 49 62 49 61 51 59 54 56 55 55 56 55 57 55 57 56 59 61 59 63 59 64 60 65 60 66 61 67 62 73 65 72 67 72 69 70 71 68 71 68 72 67 73 66 74 66 75 66 75 66 76 66 77 65 78 64 79 63 80 63 85 66 86 67 88 67 89 67 89 67 92 69 95 71 102 75 105 76 105 77 110 82 111 83 112 89 113 90 113 91 113 92 113 95 113 105 114 106 114 107 115 110 115 111 118 114 118 115 118 116 119 116 120 118 121 121 123 125 123 125 123 125 124 126 124 127 125 128 125 131 126 134 127 135 127 136 127 138 127 138 126 138 127 140 128 140 128 142 128 142 128 142 128 142 128 144 129 144 129 144 129 145 130 159 130 159 130 159 130 162 135 167"></polygon>
            <polygon id="danphuong" fill="#A553B7" points="318 226 319 228 319 228 318 229 318 229 318 231 319 232 319 232 319 233 319 233 320 236 320 236 319 236 319 236 318 237 318 238 317 240 317 242 317 242 315 244 315 244 314 244 313 243 313 243 313 243 313 245 307 244 306 244 306 245 306 245 305 244 304 245 304 245 303 245 303 245 302 244 300 244 300 243 299 242 300 240 300 239 301 237 299 236 298 235 298 235 298 234 297 233 296 233 293 232 292 232 291 231 290 231 290 231 289 231 289 231 288 232 286 235 285 235 284 235 284 235 283 236 283 237 283 237 283 237 285 238 285 238 282 241 282 242 282 242 282 243 280 245 280 245 280 246 279 246 279 246 278 246 277 245 276 244 272 247 271 245 270 245 269 245 266 247 264 248 263 248 262 247 260 245 260 244 260 238 260 237 260 234 260 232 261 231 261 229 260 227 258 225 257 225 254 224 253 224 252 223 254 218 254 218 255 218 255 216 255 215 254 215 254 214 253 213 250 213 249 212 248 212 245 210 245 209 245 208 245 207 246 206 247 206 248 204 248 204 248 203 248 201 246 199 245 198 244 196 244 196 245 191 245 190 246 190 247 189 246 187 246 184 246 174 246 174 246 172 247 169 247 168 247 168 248 169 249 169 250 170 250 170 250 171 250 172 251 174 252 177 256 179 262 181 265 182 266 183 267 183 268 183 270 185 271 186 277 187 279 187 282 187 296 191 297 191 302 192 303 193 304 194 305 194 309 196 312 198 313 198 314 198 314 197 315 197 318 198 319 199 320 201 321 202 322 203 324 206 324 206 324 208 325 208 326 210 326 211 325 213 325 213 328 216 329 217 320 224 320 224 320 224 319 224 318 225"></polygon>
            <polygon id="hoaiduc" fill="#6AF689" points="330 330 329 330 329 330 328 330 328 330 327 330 322 332 318 336 318 335 316 334 314 333 311 330 310 329 309 326 308 325 306 323 304 322 301 320 299 319 297 319 296 318 294 320 292 321 291 322 290 324 290 325 289 326 289 325 288 325 289 324 290 322 290 321 287 318 286 317 285 316 284 315 284 314 284 314 284 313 282 313 280 313 279 314 278 314 278 315 277 315 276 316 275 316 274 315 274 314 275 311 276 307 276 304 276 303 274 301 273 300 273 296 273 295 275 294 276 294 277 294 281 296 282 295 282 295 283 294 283 293 283 290 284 287 281 285 280 285 280 285 279 284 278 283 277 283 277 281 277 281 277 281 276 281 276 280 277 279 276 279 276 278 276 278 276 277 275 276 275 276 274 276 274 276 273 275 272 275 272 275 267 272 266 272 265 270 265 268 263 267 263 265 263 262 263 261 262 257 262 255 261 253 261 252 261 251 262 251 264 252 267 255 269 256 271 256 273 255 274 255 274 253 274 251 273 249 272 248 272 247 276 244 277 245 278 246 279 246 279 246 280 246 280 245 280 245 282 243 282 242 282 242 282 241 285 238 285 238 283 237 283 237 283 237 283 236 284 235 284 235 285 235 286 235 288 232 289 231 289 231 290 231 290 231 291 231 292 232 293 232 296 233 297 233 298 234 298 235 298 235 299 236 301 237 300 239 300 240 299 242 300 243 300 244 302 244 303 245 303 245 304 245 304 245 305 244 306 245 306 245 306 244 307 244 313 245 313 246 313 247 314 247 315 247 315 247 315 248 316 248 317 249 320 252 321 254 321 255 321 256 321 257 319 260 320 262 320 263 321 264 322 264 323 267 326 273 327 273 328 273 328 275 328 275 329 276 328 277 328 277 327 277 328 280 329 283 328 284 327 283 326 284 325 284 324 285 324 285 322 286 322 287 323 288 323 288 324 288 324 288 324 289 323 291 323 293 323 294 324 294 325 294 325 294 325 298 325 299 326 299 326 301 326 303 326 303 327 303 328 305 328 305 329 305 329 305 331 305 331 305 332 307 332 307 333 307 333 308 338 309 339 309 340 311 341 313 341 315 342 315 342 316 342 317 342 317 341 320 340 322 339 323 339 323 338 323 337 324 336 324 337 325 337 326 337 327 337 328 336 330 335 331 331 331 331 331"></polygon>
            <polygon id="melinh" fill="#FCD27E" points="337 198 336 198 336 197 336 197 336 197 336 196 336 195 335 194 334 194 334 194 333 196 333 197 332 197 332 197 331 198 331 198 330 197 329 198 329 199 328 200 327 203 325 205 324 206 324 206 322 203 321 202 320 201 319 199 318 198 315 197 314 197 314 198 313 198 312 198 309 196 305 194 304 194 303 193 302 192 297 191 296 191 282 187 279 187 277 187 271 186 270 185 268 183 267 183 266 183 265 182 262 181 256 179 252 177 251 174 250 172 250 171 250 170 250 170 249 169 248 169 247 168 247 168 245 167 245 165 245 164 245 163 244 162 244 161 244 160 244 160 246 160 247 160 247 159 247 158 246 157 245 156 245 156 244 154 244 152 243 150 243 149 242 148 243 146 243 145 241 144 240 143 238 143 237 141 237 140 237 139 239 140 240 140 241 141 244 138 244 138 245 138 246 137 248 137 250 139 252 139 252 139 254 140 255 140 255 139 255 137 254 136 253 134 252 133 252 132 253 132 254 132 257 133 259 133 263 133 266 131 269 130 269 129 269 128 269 127 266 124 266 124 265 124 264 125 262 124 261 125 261 124 260 123 260 123 259 121 260 118 262 116 264 116 265 116 266 116 266 117 267 118 268 118 271 117 273 116 275 114 275 114 276 114 277 117 277 118 278 118 278 119 279 118 280 116 281 116 281 116 281 117 282 117 281 118 279 120 279 121 280 122 282 123 282 123 283 123 284 122 285 121 285 118 286 117 289 117 290 118 291 118 291 119 290 120 289 120 287 120 286 121 287 121 288 121 288 121 290 121 290 122 290 123 290 124 291 125 291 127 291 128 293 129 295 128 296 131 298 134 299 135 299 134 298 133 298 130 299 130 299 129 301 129 301 129 301 127 302 128 302 128 302 129 303 129 307 129 308 128 309 127 310 127 311 126 311 126 313 127 314 127 314 126 315 124 315 124 316 124 316 124 317 123 320 119 322 117 323 118 324 119 327 120 330 121 333 122 336 125 337 127 338 128 339 129 339 129 341 128 341 128 342 129 342 133 343 134 344 135 344 135 346 136 348 135 349 135 349 135 350 136 350 139 351 142 352 143 353 143 355 145 356 146 360 146 362 147 363 149 364 150 364 152 365 152 364 156 364 157 363 157 365 159 365 160 363 161 362 160 361 160 360 162 359 162 357 162 357 162 356 163 353 161 353 161 352 162 352 162 351 163 351 165 351 167 351 167 350 168 350 168 351 171 351 174 351 175 351 183 352 185 352 186 352 190 349 193 346 195 345 195 341 196 338 196 338 196 338 198 338 198 338 199 337 199"></polygon>
            <polygon id="phuctho" fill="#B1A9D0" points="262 251 261 251 261 252 261 253 262 255 262 257 263 261 263 262 263 265 263 267 263 267 262 269 261 269 261 269 261 268 261 267 262 265 261 265 261 265 260 267 259 268 258 267 258 267 252 266 251 265 249 262 249 261 250 260 248 255 248 255 248 254 248 254 246 252 244 251 241 248 240 248 239 248 238 248 236 248 234 246 233 245 233 245 232 247 232 247 231 246 229 245 229 245 225 244 224 243 223 242 222 241 218 242 215 243 215 243 214 242 213 240 208 238 208 237 210 234 210 233 209 233 209 232 210 228 210 228 209 228 209 227 209 224 207 223 206 223 204 224 202 224 200 224 199 223 197 223 196 222 196 223 194 226 194 226 193 226 192 226 190 227 190 227 190 228 189 228 188 228 187 228 186 227 186 227 185 228 184 229 182 231 180 231 178 231 176 230 175 231 174 231 174 232 174 232 173 232 172 232 172 232 171 232 170 232 169 231 166 231 166 231 166 230 166 230 165 230 165 231 165 232 164 231 163 231 161 228 161 228 162 227 162 227 161 227 160 225 159 225 158 227 157 227 156 227 155 226 155 226 155 225 155 225 154 225 154 224 154 224 156 224 158 222 158 221 158 220 158 218 158 218 158 218 157 218 157 218 156 218 155 217 155 216 155 216 155 216 155 215 155 214 155 213 155 212 155 211 156 211 156 210 157 209 157 208 157 207 157 206 157 206 158 205 159 206 159 205 160 205 161 205 163 203 163 201 164 201 165 202 166 201 167 201 167 201 168 201 168 200 169 200 169 199 170 198 171 198 171 196 170 196 170 196 169 194 168 193 166 193 166 192 165 190 165 189 166 187 165 186 166 185 166 184 166 183 165 183 165 181 165 180 168 180 173 181 174 181 180 180 181 180 182 180 184 179 188 179 193 178 195 177 202 175 205 174 206 174 206 174 208 174 209 173 212 173 220 171 224 170 231 169 231 169 233 168 244 167 245 167 247 168 246 172 246 174 246 174 246 184 246 187 247 189 246 190 245 190 245 191 244 196 244 196 245 198 246 199 248 201 248 203 248 204 248 204 247 206 246 206 245 207 245 208 245 209 245 210 248 212 249 212 250 213 253 213 254 214 254 215 255 215 255 216 255 218 254 218 254 218 252 223 253 224 254 224 257 225 258 225 260 227 261 229 261 231 260 232 260 234 260 237 260 238 260 244 260 245 262 247 263 248 264 248 266 247 269 245 270 245 271 245 272 247 272 248 273 249 274 251 274 253 274 255 273 255 271 256 269 256 267 255 264 252"></polygon>
            <polygon id="socson" fill="#4C81CD" points="462 91 463 93 465 95 466 98 468 101 469 103 469 103 469 104 471 106 472 107 472 108 472 110 472 111 470 110 469 110 466 111 464 111 463 111 463 111 464 113 465 114 464 115 464 116 460 118 460 118 460 119 459 120 459 120 457 120 455 120 454 121 452 121 451 121 450 121 449 121 449 121 449 123 449 124 448 124 447 125 447 127 448 127 449 128 450 127 451 126 452 126 452 126 453 127 453 128 455 131 456 134 456 137 456 138 455 139 453 139 452 139 452 140 452 140 453 142 454 143 454 143 452 144 450 146 449 148 449 148 449 149 449 151 450 153 449 157 449 158 448 159 448 159 446 159 445 159 445 160 445 161 445 161 446 162 445 162 444 163 443 163 442 162 442 162 443 161 443 160 443 159 443 158 442 157 440 158 439 158 438 158 437 156 436 154 435 153 434 153 431 155 430 155 429 155 428 155 428 155 428 154 428 154 430 154 431 154 431 153 432 152 433 149 434 148 435 146 437 145 438 144 438 143 438 142 437 142 436 141 434 142 433 142 431 143 426 144 426 143 425 142 425 141 424 141 424 141 424 142 425 145 425 146 424 146 424 147 422 147 421 147 421 146 421 145 420 145 420 144 418 145 418 145 417 147 415 149 412 151 408 153 407 153 404 154 402 153 400 154 398 155 396 156 396 156 394 154 391 155 389 155 387 157 385 158 383 158 382 157 381 157 383 155 383 155 382 154 381 153 380 152 378 153 375 154 373 155 372 155 372 155 370 153 369 151 368 151 367 151 366 152 365 152 364 152 364 150 363 149 362 147 360 146 356 146 355 145 353 143 352 143 351 142 350 139 350 136 349 135 349 135 348 135 346 136 344 135 344 135 343 134 342 133 342 129 341 128 341 128 339 129 339 129 338 128 337 127 336 125 333 122 330 121 327 120 324 119 323 118 322 117 321 116 321 116 321 116 323 116 324 118 325 118 326 117 326 116 325 114 324 113 323 112 322 112 318 113 318 113 317 112 317 112 318 111 319 109 320 108 320 107 319 106 318 106 317 105 316 105 317 103 317 102 317 98 317 97 316 96 316 95 316 94 317 93 318 93 319 93 321 91 320 90 320 90 319 89 318 89 318 88 320 88 321 88 321 87 321 86 323 87 323 86 324 84 326 83 326 83 326 82 325 80 325 78 326 78 326 77 327 77 328 77 328 77 328 77 329 77 329 77 329 77 330 77 330 77 331 77 330 76 330 75 330 75 330 74 331 74 331 74 331 73 331 73 332 73 332 73 333 73 333 72 334 71 335 71 336 71 336 71 338 71 338 71 339 70 339 68 340 68 342 67 342 65 342 62 343 59 344 57 350 51 350 49 352 45 354 41 354 41 355 39 355 38 356 38 356 37 358 36 360 34 360 33 364 32 366 33 367 32 368 32 368 32 368 31 367 30 366 29 365 28 364 27 364 26 363 26 363 25 362 24 363 22 362 21 361 20 361 20 362 17 363 15 363 13 363 11 364 10 364 10 365 9 367 9 367 9 369 8 369 7 369 6 369 6 369 5 369 4 370 3 371 3 371 2 372 2 372 1 372 1 372 1 373 0 373 0 375 1 375 2 375 2 376 3 377 2 378 2 379 3 381 4 382 4 382 3 382 3 383 2 384 3 387 5 388 6 391 6 394 8 394 8 395 9 396 9 397 9 398 9 399 8 399 8 399 7 400 6 401 6 401 6 402 7 403 7 403 7 405 6 406 6 407 6 407 7 408 8 409 9 411 8 412 7 413 7 414 8 414 8 414 9 414 11 414 12 415 14 415 15 414 15 414 15 412 14 412 14 412 14 411 16 411 18 410 21 410 22 410 24 411 25 412 26 411 26 410 28 410 29 411 29 412 29 414 30 415 31 415 31 415 32 413 31 413 31 413 32 412 33 413 34 413 35 414 36 414 37 415 37 417 38 417 38 420 41 420 44 420 45 421 46 422 46 424 44 424 44 426 46 427 46 429 46 432 46 433 46 436 48 437 48 438 47 439 46 441 45 441 45 442 46 443 46 443 47 444 49 444 49 444 53 444 54 444 56 443 57 442 59 442 60 442 61 443 62 445 64 448 65 450 66 451 65 452 65 455 63 456 62 457 63 457 64 456 67 456 69 456 70 456 71 457 72 460 72 461 72 463 71 464 71 466 71 466 71 467 71 467 73 467 73 463 75 462 77 461 78 461 81 461 89"></polygon>
            <polygon id="donganh" fill="#B1A9D0" points="460 197 459 199 460 200 459 200 456 204 456 204 457 204 457 208 457 208 455 208 452 209 449 211 449 212 449 212 447 215 446 217 446 218 445 217 444 219 444 221 443 222 443 222 443 223 443 224 444 224 444 225 445 225 446 227 447 228 448 231 448 231 449 231 449 231 449 232 449 232 449 232 448 233 449 238 448 238 447 239 446 239 444 238 443 238 441 238 439 239 432 244 432 244 429 246 426 248 424 249 422 249 420 250 418 249 416 248 413 245 413 244 412 244 407 240 405 239 403 240 402 240 402 239 397 234 395 233 393 232 392 231 389 228 388 228 387 228 385 228 384 227 377 227 368 225 364 225 360 225 358 224 355 224 352 225 348 224 346 224 343 225 340 225 337 224 335 224 333 222 331 219 330 217 329 217 328 216 325 213 325 213 326 211 326 210 325 208 324 208 324 206 325 205 327 203 328 200 329 199 329 198 330 197 331 198 331 198 332 197 332 197 333 197 333 196 334 194 334 194 335 194 336 195 336 196 336 197 336 197 336 197 336 198 337 198 337 199 338 199 338 198 338 198 338 196 338 196 341 196 345 195 346 195 349 193 352 190 352 186 352 185 351 183 351 175 351 174 351 171 350 168 350 168 351 167 351 167 351 165 351 163 352 162 352 162 353 161 353 161 356 163 357 162 357 162 359 162 360 162 361 160 362 160 363 161 365 160 365 159 363 157 364 157 364 156 365 152 366 152 367 151 368 151 369 151 370 153 372 155 372 155 373 155 375 154 378 153 380 152 381 153 382 154 383 155 383 155 381 157 382 157 383 158 385 158 387 157 389 155 391 155 394 154 396 156 396 156 398 155 400 154 402 153 404 154 407 153 408 153 412 151 415 149 417 147 418 145 418 145 420 144 420 145 421 145 421 146 421 147 422 147 424 147 424 146 425 146 425 145 424 142 424 141 424 141 425 141 425 142 426 143 426 144 431 143 433 142 434 142 436 141 437 142 438 142 438 143 438 144 437 145 435 146 434 148 433 149 432 152 431 153 431 154 430 154 428 154 428 154 428 155 428 155 429 155 430 155 431 155 434 153 435 153 436 154 437 156 438 158 439 158 440 158 442 157 443 159 443 160 443 161 442 162 442 162 443 163 445 162 446 162 445 161 445 161 445 160 445 159 446 159 448 159 448 159 449 158 449 157 450 153 449 151 451 151 453 151 453 152 455 153 455 154 456 155 458 157 462 159 462 159 460 162 461 163 461 163 460 164 460 165 460 166 458 166 458 168 458 168 458 169 458 170 458 171 458 171 460 174 462 173 462 174 462 174 461 175 460 175 460 179 460 180 461 182 462 184 463 185 463 186 464 186 464 187 464 188 465 190 464 191 464 192 464 193 463 194 463 195 463 196 463 196 463 196 462 197 461 196"></polygon>
            <polygon id="gialam" fill="#4C81CD" points="521 287 522 288 522 288 522 289 522 290 522 292 523 291 525 291 525 292 525 293 524 294 522 295 522 296 519 296 519 300 516 299 515 300 514 300 512 301 512 301 511 302 511 302 510 303 508 303 507 304 504 303 503 302 502 302 500 304 499 304 498 303 498 303 497 304 498 305 498 306 498 306 498 309 498 309 496 311 494 309 494 309 493 308 492 308 491 309 490 309 490 309 490 310 490 310 491 311 492 312 491 312 492 313 493 313 493 313 493 314 491 315 491 316 491 316 492 316 492 317 490 319 491 320 491 322 491 322 492 323 492 323 492 327 492 328 490 328 489 328 488 328 487 329 487 329 486 328 487 327 486 327 485 327 484 326 484 326 483 326 482 326 481 325 480 325 477 326 476 326 475 325 474 325 474 324 472 324 471 324 471 324 470 323 469 322 468 322 468 322 468 323 465 322 463 321 463 321 462 321 462 321 462 322 460 322 460 322 459 321 459 321 456 321 455 321 455 322 455 322 455 323 455 324 454 324 454 325 451 330 450 332 450 334 449 340 448 342 448 343 451 344 454 346 454 346 454 347 454 347 455 348 456 348 456 349 456 351 454 352 453 355 451 358 447 356 442 356 435 356 433 356 431 355 431 354 430 353 432 348 436 343 438 339 440 337 440 336 443 332 443 331 445 329 448 324 449 323 451 320 452 318 452 316 452 316 452 314 452 313 451 312 448 312 445 313 444 313 442 312 441 311 441 310 441 310 442 310 442 309 444 312 446 311 450 311 451 311 453 312 449 309 446 306 447 305 448 303 448 302 447 300 448 299 452 297 452 298 453 298 454 299 455 299 456 299 456 299 457 299 458 297 459 297 459 295 459 294 460 291 460 291 461 291 461 290 462 290 462 289 462 288 463 288 463 287 463 287 463 286 464 285 470 285 470 284 470 282 470 282 467 281 466 282 466 282 465 281 465 281 465 280 469 277 470 276 469 276 469 275 469 275 470 275 470 274 471 273 471 273 471 273 473 271 473 271 473 270 471 268 471 266 470 264 469 258 468 258 467 254 466 249 465 248 463 245 462 244 460 243 458 242 454 241 452 241 448 240 447 240 447 239 448 238 449 238 448 233 449 232 449 232 449 232 449 231 449 231 448 231 448 231 447 228 446 227 445 225 444 225 444 224 443 224 443 223 443 222 443 222 444 221 444 219 445 217 445 217 446 218 446 217 447 215 449 212 449 212 449 211 452 209 455 208 457 208 457 208 457 208 460 208 461 209 462 208 462 207 462 207 463 207 463 208 462 211 462 211 463 212 464 212 464 213 464 214 466 214 466 214 468 215 468 215 469 217 469 217 470 218 471 221 471 221 472 222 472 223 472 223 472 226 473 229 474 229 474 229 476 232 476 233 475 233 475 233 475 235 475 235 479 233 481 232 482 232 485 231 487 230 488 231 489 232 490 240 491 240 491 240 495 245 499 246 503 246 505 246 507 247 511 246 514 246 516 245 517 244 520 247 521 249 523 251 525 250 526 252 524 256 524 257 524 257 525 257 525 257 525 256 526 256 526 256 527 257 528 257 529 258 528 261 532 264 532 265 532 269 532 271 528 277 526 278 525 278 523 279 525 281 524 282 523 283 522 283 521 285"></polygon>
            <polygon id="thanhtri" fill="#FCE138" points="434 370 433 370 430 371 429 371 428 371 427 373 427 374 425 374 424 373 421 373 421 374 420 375 419 375 416 374 415 374 414 375 414 376 413 376 412 376 412 377 412 378 411 378 411 379 412 382 411 382 409 380 407 379 404 379 401 378 401 377 401 375 402 373 402 372 401 371 399 372 396 372 395 373 395 374 396 374 396 375 396 376 396 377 395 378 394 378 394 379 395 380 394 380 393 381 392 381 392 380 391 379 391 378 391 377 387 377 383 377 380 375 378 372 377 372 376 372 375 372 375 371 374 370 373 370 371 369 370 370 369 370 369 368 368 367 366 367 365 366 365 364 366 363 366 361 366 360 366 359 367 358 368 357 370 356 371 355 371 353 372 353 373 352 372 351 371 351 371 350 371 349 370 349 369 348 367 349 365 349 364 348 364 347 363 347 364 346 366 346 369 341 368 340 368 337 370 336 371 335 371 334 370 332 370 331 369 330 367 329 367 328 366 328 367 327 366 325 367 324 368 324 368 323 368 322 370 321 371 321 372 320 372 318 371 318 369 316 369 315 369 314 370 314 371 314 371 313 371 314 372 313 373 314 374 313 372 311 373 311 374 311 377 312 378 313 380 313 380 315 379 317 378 321 378 322 380 322 381 323 381 324 383 324 384 324 385 324 386 323 390 323 390 324 390 326 388 327 385 331 384 332 385 333 386 333 387 335 388 335 389 335 391 336 394 338 395 338 395 337 395 336 396 336 397 335 398 334 399 334 400 335 401 334 403 333 404 336 405 336 406 336 408 335 411 334 411 332 413 331 414 331 415 334 415 335 416 336 417 336 418 338 419 338 419 339 420 340 421 339 422 340 423 340 425 337 426 336 428 338 433 341 436 343 432 348 430 353 431 354 431 355 433 356 435 356 442 356 447 356 455 359 456 360 457 360 457 362 456 365 456 366 450 371 445 375 444 375 443 375 439 372 438 374 433 372"></polygon>
            <polygon id="hadong" fill="#FC6F84" points="363 329 359 330 358 331 357 331 356 332 352 334 350 334 350 334 350 338 352 339 354 340 357 342 358 343 359 346 359 346 360 347 361 347 362 349 362 350 361 352 360 353 360 354 359 355 356 356 355 356 354 357 355 357 354 358 353 358 349 359 349 359 347 360 347 360 344 357 344 356 344 355 344 355 341 353 341 354 341 357 340 358 340 358 339 358 338 358 338 358 337 358 337 358 336 358 336 358 335 358 335 358 334 357 335 353 334 352 334 350 334 350 334 348 334 348 333 348 332 348 330 347 329 348 328 347 326 348 325 347 325 347 325 347 321 348 321 348 319 347 319 346 318 346 318 347 317 347 317 347 317 348 317 350 316 351 315 352 314 352 313 353 312 353 310 352 309 351 309 350 308 348 308 347 309 346 310 345 310 344 312 344 314 343 315 342 316 341 318 339 318 339 319 337 318 336 322 332 327 330 328 330 328 330 329 330 329 330 330 330 331 331 331 331 335 331 336 330 337 328 337 327 337 326 337 325 336 324 337 324 338 323 339 323 339 323 340 322 341 320 342 317 342 317 342 316 343 316 344 317 345 317 345 317 346 317 346 317 346 316 347 315 347 314 347 314 348 314 348 314 351 313 352 312 352 312 352 313 353 312 354 313 355 312 357 314 357 313 358 312 358 311 358 310 359 310 360 310 360 310 361 310 361 309 362 310 363 311 363 311 362 311 361 311 362 312 367 312 369 312 369 313 370 314 369 314 369 315 369 316 371 318 371 318 372 318 372 320 372 320 371 321 370 321 368 322 368 323 368 324 367 324 366 325 367 327 366 328 367 328 367 329 369 330 370 331 370 332 368 333 367 333 365 332 364 332 363 331 363 330"></polygon>
            <polygon id="badinh" fill="#FCE138" points="409 269 409 270 409 269 408 269 406 270 406 270 405 271 405 271 404 275 404 276 404 276 404 277 404 278 403 278 402 279 402 279 402 279 402 279 401 278 401 278 401 278 401 278 401 278 401 278 400 278 400 278 399 277 398 278 397 277 397 277 396 277 395 277 395 277 395 277 395 277 395 277 395 277 394 277 394 277 394 276 394 276 394 276 393 277 392 278 391 279 387 283 387 283 387 283 387 285 385 287 384 289 383 288 382 287 380 286 381 285 380 285 380 285 381 284 381 284 381 284 381 282 380 282 379 280 379 280 378 281 378 280 378 279 377 279 375 279 374 278 373 278 373 278 373 278 374 277 376 274 377 273 377 271 377 270 377 270 377 270 377 267 377 264 378 264 380 265 381 266 383 268 384 268 386 268 388 268 389 269 390 269 391 270 393 270 393 270 394 269 395 268 396 268 398 268 398 267 399 267 399 265 400 263 401 262 401 262 401 262 403 263 404 263 404 263 404 262 404 262 405 262 405 262 405 262 406 261 407 260 407 259 408 260 409 261 413 268"></polygon>
            <polygon id="caugiay" fill="#FCD27E" points="376 274 374 276 371 280 371 281 371 282 371 282 371 283 373 284 373 285 374 287 375 288 376 289 377 291 380 293 382 294 381 295 381 295 380 296 380 296 380 296 379 295 378 296 377 295 376 295 374 297 370 298 367 300 367 300 367 299 367 299 366 298 364 296 365 295 364 292 365 290 365 290 360 285 361 283 361 283 361 281 360 278 359 278 359 277 357 277 356 276 357 275 356 274 354 275 354 275 353 274 351 273 351 274 349 274 348 273 349 269 350 268 350 268 353 264 354 264 354 263 358 263 359 266 359 266 363 266 363 265 365 265 365 264 364 264 364 264 364 264 363 263 363 263 363 261 364 261 364 260 365 261 365 261 365 262 366 262 366 263 365 264 365 264 365 264 366 265 367 265 368 265 368 263 369 263 368 262 368 261 370 263 371 263 371 264 372 263 372 263 372 263 372 262 373 262 375 261 375 261 375 260 376 261 376 260 376 260 376 260 376 259 376 259 377 259 377 259 376 258 377 257 377 257 378 258 378 258 378 257 378 255 378 255 378 255 379 255 379 257 379 260 379 260 378 261 377 264 376 265 377 267 377 270 377 270 377 270 377 271 377 273"></polygon>
            <polygon id="dongda" fill="#6ECFFC" points="403 303 401 302 399 302 392 300 391 301 391 302 389 301 388 301 388 301 388 300 387 300 386 300 385 301 385 300 384 297 383 294 380 293 377 291 376 289 375 288 374 287 373 285 373 284 371 282 371 282 371 281 372 278 373 278 373 278 373 278 374 278 375 279 377 279 378 279 378 280 378 281 379 280 379 280 380 282 381 282 381 284 381 284 380 285 380 285 381 285 380 286 382 287 383 288 384 289 385 287 387 285 387 283 387 283 387 283 391 279 392 278 393 277 394 276 394 276 394 276 394 277 394 277 395 277 395 277 395 277 395 277 395 277 395 277 396 277 397 277 397 277 398 278 399 277 400 278 400 278 401 278 401 278 401 278 401 278 401 278 402 278 402 279 402 279 402 279 402 279 403 279 402 279 402 280 402 281 401 282 402 284 402 285 402 286 402 286 402 288 402 290 402 300"></polygon>
            <polygon id="hoangmai" fill="#FCE138" points="442 309 442 310 441 310 441 310 442 312 444 313 445 313 448 312 451 312 452 313 452 314 452 316 452 316 452 318 451 320 449 323 448 324 445 329 443 331 443 332 440 336 440 337 438 339 436 343 433 341 428 338 426 336 426 336 425 337 425 337 423 340 422 340 421 339 421 339 421 339 420 340 420 340 419 339 419 339 419 338 418 338 417 336 416 336 415 334 414 331 413 331 411 332 411 334 411 334 411 334 408 335 406 336 405 336 404 336 404 336 403 333 403 333 401 334 400 335 399 334 398 334 397 335 397 335 396 336 396 336 395 336 395 336 395 336 395 337 395 338 394 338 391 336 389 335 388 335 387 335 386 333 385 333 384 332 384 332 385 331 385 331 388 327 390 326 390 324 390 323 386 323 385 324 384 324 383 324 381 324 381 323 380 322 380 322 378 322 378 321 378 321 378 321 379 317 379 317 380 315 382 316 382 316 383 314 384 315 385 316 386 316 386 315 386 313 386 312 390 309 389 308 391 307 391 308 392 307 392 306 392 306 393 306 393 306 394 305 394 305 397 309 397 309 397 310 398 311 398 311 398 311 399 312 399 312 400 313 400 313 401 313 402 312 402 309 403 310 403 310 404 309 404 307 404 307 404 306 405 306 405 306 405 306 405 307 406 308 407 308 407 308 410 309 410 309 410 307 409 307 409 306 410 306 412 306 413 306 413 306 414 306 414 306 414 306 415 305 416 305 417 304 417 305 417 306 417 306 417 306 417 306 418 306 418 304 418 304 418 304 419 305 419 305 420 305 420 305 420 306 420 306 423 306 424 306 424 306 425 306 425 306 426 306 426 306 426 304 427 304 429 304 430 304 430 303 430 301 431 300 433 298 436 300 436 300 438 303 442 304 446 306 449 309 453 312 451 311 450 311 446 311 444 312"></polygon>
            <polygon id="hoankiem" fill="#48885C" points="421 283 422 285 420 286 417 287 415 286 414 286 414 286 414 286 414 286 413 286 413 286 412 287 412 287 411 287 411 287 410 287 410 287 410 287 410 287 409 286 409 286 409 286 409 286 408 286 408 286 408 286 407 286 407 286 406 286 403 285 403 285 402 285 402 285 402 284 402 284 401 282 402 281 402 280 402 279 403 279 402 279 404 278 404 277 404 276 404 276 404 275 405 271 405 271 406 270 406 270 408 269 409 269 409 270 410 269 414 267 415 268 415 269 419 276 420 279"></polygon>
            <polygon id="longbien" fill="#FFF799" points="465 281 465 281 466 282 466 282 467 281 470 282 470 282 470 284 470 285 464 285 463 286 463 287 463 287 463 288 462 288 462 289 462 290 461 290 461 291 460 291 460 291 459 294 459 295 459 297 458 297 457 299 456 299 456 299 455 299 454 299 453 298 452 298 452 297 448 299 447 300 448 302 448 303 447 305 446 306 442 304 438 303 436 300 436 300 433 298 432 296 430 295 429 295 428 294 427 293 425 292 424 290 423 287 422 285 422 284 421 283 420 279 419 276 415 269 415 268 414 267 413 268 409 261 408 260 407 259 407 258 406 254 405 252 404 249 404 247 403 244 403 243 403 242 403 241 402 240 403 240 405 239 407 240 412 244 413 244 413 245 416 248 418 249 420 250 422 249 424 249 429 246 432 244 432 244 439 239 441 238 443 238 444 238 446 239 447 239 447 240 448 240 452 241 454 241 458 242 460 243 462 244 463 245 465 248 466 249 467 254 468 258 469 258 470 264 471 266 471 268 473 270 473 271 473 271 471 273 471 273 471 273 470 274 470 275 469 275 469 275 469 276 470 276 469 277 465 280"></polygon>
            <polygon id="haibatrung" fill="#FC3E5A" points="427 304 426 304 426 306 426 306 426 306 425 306 425 306 424 306 424 306 423 306 420 306 420 306 420 305 420 305 419 305 419 305 418 304 418 304 418 304 418 306 417 306 417 306 417 306 417 306 417 305 417 304 416 305 415 305 414 306 414 306 414 306 413 306 413 306 412 306 410 306 409 306 409 307 409 307 410 307 410 309 410 309 407 308 407 308 406 308 405 307 405 307 405 306 405 306 404 306 404 306 404 307 404 307 404 309 403 310 403 310 403 310 402 309 402 308 402 307 403 305 404 304 403 303 402 300 402 290 402 288 402 286 402 286 402 285 402 285 403 285 403 285 406 286 407 286 407 286 408 286 408 286 408 286 409 286 409 286 409 286 409 286 410 287 410 287 410 287 411 287 411 287 412 287 412 287 413 286 413 286 414 286 414 286 414 286 414 286 415 286 417 287 420 286 422 285 423 287 424 290 425 292 427 293 428 294 429 295 430 295 432 296 433 298 431 300 430 301 430 303 430 304 429 304"></polygon>
            <polygon id="bactuliem" fill="#BF7C37" points="349 269 350 268 353 264 354 264 354 263 358 263 359 266 363 266 363 265 365 265 365 264 364 264 363 263 363 261 364 261 364 260 365 261 365 262 366 262 366 263 365 264 366 264 366 265 368 265 368 263 369 263 368 262 368 261 370 260 372 258 371 256 370 256 372 253 374 252 378 248 377 248 376 249 375 248 376 247 375 247 375 244 374 244 372 242 372 239 371 238 369 237 369 239 368 239 367 237 368 232 367 231 366 231 366 230 367 230 368 227 368 225 360 225 358 224 355 224 352 225 348 224 346 224 343 225 340 225 337 224 335 224 333 222 331 219 330 217 329 217 320 224 319 224 318 225 318 226 319 228 318 229 318 231 319 232 319 233 320 236 319 236 318 237 318 238 317 240 317 242 315 244 314 244 313 243 313 247 315 247 315 248 316 248 320 252 321.018766 257.024297 323.883207 259.717566 326.741942 267.335045 328.295204 266.37657 336.547267 269.896759 338.285241 271.776808 339.436703 271.219362 340.176499 271.577202 341.272977 271.808798 342.335727 271.639283 344.430757 269.258069 348.628087 270.462309"></polygon>
            <polygon id="namtuliem" fill="#F1983C" points="321 257 320.799328 257.301009 348.637476 270.450097 348 273 349 274 351 274 351 273 353 274 354 275 356 274 357 275 356 276 357 277 359 277 359 278 360 278 361 281 361 283 360 285 365 290 364 292 365 295 364 296 367 299 367 300 366 301 367 302 367 301 369 302 369 305 370 305 369 307 371 310 369 311 369 312 362 312 361 311 363 311 361 309 361 310 358 310 358 312 357 313 357 314 355 312 354 313 353 312 352 313 352 312 351 313 348 314 347 314 347 315 346 316 346 317 344 317 343 316 342 316 342 315 341 315 341 313 339 309 338 309 333 308 333 307 332 307 331 305 328 305 327 303 326 303 326 299 325 299 325 294 323 294 323 291 324 289 324 288 323 288 322 287 322 286 324 285 325 284 326 284 327 283 328 284 329 283 327 277 328 277 329 276 328 275 328 273 326 273 323 267 322 264 321 264 320 263 320 262 319 260 320.799328 257.301009 348.637476 270.450097 344.435319 269.246301 342.332302 271.640371 341.2498 271.799563 340.16758 271.568806 339.426283 271.214922 338.286304 271.774487 336.560838 269.899691 328.293872 266.375784 326.759999 267.325016 323.88272 259.707213"></polygon>
            <polygon id="sontay" fill="#FC6F84" points="164 201 163 201 163 203 161 205 160 205 159 205 159 206 158 205 157 206 157 206 157 207 157 208 157 209 156 210 156 211 155 211 155 212 155 213 155 214 155 215 155 216 155 216 155 216 155 217 156 218 157 218 157 218 158 218 158 218 158 218 158 220 158 221 158 222 156 224 154 224 154 224 154 225 155 225 155 225 155 226 155 226 156 227 157 227 158 227 159 225 160 225 161 227 162 227 162 227 161 228 161 228 163 231 164 231 165 232 165 231 165 230 166 230 166 230 166 231 166 231 169 231 170 232 171 232 172 232 172 232 172 233 171 233 171 234 171 235 171 236 172 237 173 237 175 237 176 238 177 239 178 242 177 243 177 244 177 244 179 243 180 243 180 244 181 244 181 245 181 245 180 245 180 245 180 245 180 246 179 246 178 247 177 247 176 249 175 250 176 250 175 251 175 251 175 252 175 252 176 254 177 255 178 255 178 255 178 256 178 257 178 258 178 259 179 259 179 259 179 260 179 260 177 262 176 262 177 263 176 264 176 265 176 265 175 265 174 265 174 265 175 266 174 266 174 267 175 268 174 268 173 269 173 270 170 273 168 274 167 274 166 275 166 276 165 276 165 276 164 277 163 278 163 279 161 280 161 280 161 280 160 282 160 282 159 281 157 280 154 277 153 277 150 274 147 271 146 271 136 282 132 285 132 285 130 284 129 283 129 283 128 282 128 281 127 279 126 279 124 278 123 277 122 276 123 270 123 268 123 262 123 258 124 257 125 256 125 255 126 254 126 252 127 251 128 249 128 248 128 247 129 245 128 244 127 245 126 246 125 247 125 248 124 249 125 250 124 252 124 255 124 256 123 256 122 255 123 254 123 254 123 253 123 252 124 250 124 247 124 246 123 246 122 247 122 248 122 249 121 251 120 251 120 251 121 249 121 249 120 249 118 250 117 251 116 252 115 251 114 252 113 252 111 251 110 250 110 250 110 248 109 247 110 246 111 242 110 241 110 241 109 240 109 240 109 239 110 239 110 238 110 237 109 237 109 237 109 236 109 234 109 233 110 232 111 230 112 229 113 229 114 227 113 227 111 226 111 225 112 224 111 223 110 222 110 221 110 221 111 220 110 220 107 222 106 222 105 222 104 221 102 220 101 220 100 219 100 219 103 218 104 217 104 216 103 214 103 210 103 209 103 208 103 208 103 207 101 207 100 206 99 205 99 203 99 201 99 199 97 198 97 198 95 197 95 197 95 196 94 196 92 196 92 196 92 195 92 195 92 194 94 192 94 192 95 191 95 191 96 191 96 190 97 189 97 189 99 186 100 186 100 185 100 185 102 184 102 184 103 183 103 183 103 182 103 182 106 183 107 183 107 183 108 184 110 185 110 185 111 185 111 186 111 186 112 186 114 186 114 186 114 187 114 187 116 187 117 187 117 188 116 189 118 190 118 190 118 189 119 189 119 188 118 187 118 186 118 186 119 187 121 188 122 188 123 186 123 185 124 185 125 184 125 184 126 184 125 183 126 183 126 182 125 182 125 181 127 180 128 180 128 179 127 178 128 177 128 176 129 176 129 176 129 175 129 175 129 174 129 174 129 174 130 174 130 173 130 173 131 170 131 170 131 170 132 170 135 167 137 168 141 171 143 173 143 173 144 173 146 175 148 176 152 177 154 178 154 178 156 178 161 179 164 179 165 180 165 181 165 183 166 183 166 184 166 185 165 186 166 187 165 189 165 190 166 192 166 193 168 193 169 194 170 196 170 196 171 196 171 198 170 198 169 199 169 200 168 200 168 201 167 201 167 201 166 201 165 202"></polygon>
            <polygon id="tayho" fill="#FC3E5A" points="406 256 407 258 407 259 407 260 406 261 405 262 405 262 405 262 404 262 404 262 404 263 404 263 403 263 401 262 401 262 401 262 400 263 399 265 399 267 398 267 398 268 396 268 395 268 394 269 393 270 393 270 391 270 390 269 389 269 388 268 386 268 384 268 383 268 381 266 380 265 378 264 377 264 377 263 378 261 379 260 379 260 379 260 379 257 379 255 378 255 378 255 378 255 378 257 378 258 378 258 377 257 377 258 376 258 377 259 377 259 376 259 376 259 376 260 376 260 376 260 376 261 375 260 375 261 375 261 373 262 372 262 372 263 372 263 371 264 371 263 370 263 368 261 370 260 372 258 371 256 370 256 372 253 374 252 376 250 376 250 377 249 378 248 377 248 376 249 376 249 375 248 375 248 376 247 375 247 375 246 375 246 375 245 375 245 375 245 375 244 374 244 373 243 372 242 372 240 372 239 371 238 369 237 369 238 369 239 368 239 367 237 368 232 367 231 366 231 366 230 366 230 367 230 367 230 368 227 368 225 377 227 384 227 385 228 387 228 388 228 389 228 392 231 393 232 395 233 397 234 402 239 402 240 403 241 403 242 403 243 403 244 404 247"></polygon>
            <polygon id="thanhxuan" fill="#FFF799" points="403 303 404 304 403 305 402 307 402 308 402 309 402 310 402 312 401 313 400 313 399 312 399 312 398 311 398 311 397 310 397 309 397 309 394 305 394 305 393 306 393 306 392 306 392 306 392 307 391 308 391 307 389 308 390 309 386 312 386 313 386 315 386 316 385 316 384 315 383 314 382 316 382 316 380 315 380 313 378 313 377 312 374 311 374 311 374 311 373 311 372 311 372 311 372 311 374 313 373 314 372 313 371 314 371 313 371 314 370 314 369 313 369 312 369 311 371 310 369 307 370 305 369 305 369 304 369 302 367 301 367 301 367 302 367 302 366 301 366 301 367 300 370 298 374 297 376 295 377 295 378 296 379 295 380 296 380 296 380 296 381 295 381 295 382 294 383 294 384 297 385 300 385 301 386 300 387 300 388 300 388 301 388 301 389 301 391 302 391 301 392 300 399 302 401 302"></polygon>
        </g>
    </g>
</svg>